<?xml version="1.0" encoding="UTF-8" standalone="no"?>
<!-- Created with Inkscape (http://www.inkscape.org/) -->

<svg
        xmlns:dc="http://purl.org/dc/elements/1.1/"
        xmlns:cc="http://creativecommons.org/ns#"
        xmlns:rdf="http://www.w3.org/1999/02/22-rdf-syntax-ns#"
        xmlns:svg="http://www.w3.org/2000/svg"
        xmlns="http://www.w3.org/2000/svg"
        xmlns:sodipodi="http://sodipodi.sourceforge.net/DTD/sodipodi-0.dtd"
        xmlns:inkscape="http://www.inkscape.org/namespaces/inkscape"
        width="256"
        height="256"
        viewBox="0 0 256 256"
        id="svg2"
        version="1.1"
        inkscape:version="0.91 r13725"
        sodipodi:docname="favicon.svg"
        inkscape:export-filename="/media/derenderkeks/Storage-Lewin/Lewin/Development/Workspace/yanius/favicon.png"
        inkscape:export-xdpi="90"
        inkscape:export-ydpi="90">
    <sodipodi:namedview
            id="base"
            pagecolor="#ffffff"
            bordercolor="#666666"
            borderopacity="1.0"
            inkscape:pageopacity="0.0"
            inkscape:pageshadow="2"
            inkscape:zoom="2"
            inkscape:cx="100.57823"
            inkscape:cy="153.65236"
            inkscape:document-units="px"
            inkscape:current-layer="layer1"
            showgrid="false"
            units="px"
            inkscape:window-width="1920"
            inkscape:window-height="1029"
            inkscape:window-x="0"
            inkscape:window-y="0"
            inkscape:window-maximized="1"/>
    <defs
            id="defs4">
        <inkscape:perspective
                sodipodi:type="inkscape:persp3d"
                inkscape:vp_x="-193.61612 : -12.030895 : 1"
                inkscape:vp_y="0 : 666.32937 : 0"
                inkscape:vp_z="15187.507 : 65.826248 : 1"
                inkscape:persp3d-origin="103.01675 : -40.460955 : 1"
                id="perspective4245"/>
    </defs>
    <metadata
            id="metadata7">
        <rdf:RDF>
            <cc:Work
                    rdf:about="">
                <dc:format>image/svg+xml</dc:format>
                <dc:type
                        rdf:resource="http://purl.org/dc/dcmitype/StillImage"/>
                <dc:title></dc:title>
            </cc:Work>
        </rdf:RDF>
    </metadata>
    <g
            transform="translate(0,-796.36219)"
            id="layer1"
            inkscape:groupmode="layer"
            inkscape:label="Ebene 1">
        <circle
                r="127.27923"
                cy="924.36218"
                cx="128"
                id="path4686"
                style="opacity:1;fill:#512da8;fill-opacity:1;fill-rule:nonzero;stroke:none;stroke-opacity:1"/>
        <path
                style="opacity:1;fill:#000000;fill-opacity:0.22670809;fill-rule:nonzero;stroke:none;stroke-opacity:1"
                d="m 133.0513,1051.4767 a 127.27923,127.27923 0 0 0 3.95312,-0.1406 127.27923,127.27923 0 0 0 12.62891,-1.5312 127.27923,127.27923 0 0 0 12.41406,-2.7871 127.27923,127.27923 0 0 0 12.07422,-4.0118 127.27923,127.27923 0 0 0 11.61133,-5.1972 127.27923,127.27923 0 0 0 11.03711,-6.3301 127.27923,127.27923 0 0 0 10.34765,-7.4004 127.27923,127.27923 0 0 0 9.55859,-8.3965 127.27923,127.27923 0 0 0 8.67187,-9.3106 127.27923,127.27923 0 0 0 7.70117,-10.12692 127.27923,127.27923 0 0 0 6.64844,-10.84766 127.27923,127.27923 0 0 0 5.53516,-11.45508 127.27923,127.27923 0 0 0 4.36132,-11.95117 127.27923,127.27923 0 0 0 3.14844,-12.32812 127.27923,127.27923 0 0 0 1.90039,-12.57813 127.27923,127.27923 0 0 0 0.63672,-12.70703 127.27923,127.27923 0 0 0 -0.0937,-2.65234 L 144.20559,810.74428 18.262228,936.68764 133.0513,1051.4767 Z"
                id="rect4275-7-6"
                inkscape:connector-curvature="0"/>
        <path
                style="fill:#512da8;fill-opacity:1;fill-rule:evenodd;stroke:none;stroke-width:1px;stroke-linecap:butt;stroke-linejoin:miter;stroke-opacity:1"
                d="M 85.59375,1003.9912 114.5,989.36219 l 62.20703,-146.125 c 0,0 -7.05709,-30.12019 -19.20703,-31.125 C -40.481077,795.73891 -10.147625,1012.5214 85.59375,1003.9912 Z"
                id="path4279"
                inkscape:connector-curvature="0"
                sodipodi:nodetypes="cccsc"/>
        <g
                id="text4696"
                style="font-style:normal;font-weight:normal;font-size:187.1973877px;line-height:125%;font-family:sans-serif;letter-spacing:0px;word-spacing:0px;fill:#000000;fill-opacity:1;stroke:none;stroke-width:1px;stroke-linecap:butt;stroke-linejoin:miter;stroke-opacity:1">
            <g
                    id="g4202">
                <path
                        id="path4137"
                        style="font-style:normal;font-variant:normal;font-weight:300;font-stretch:normal;font-size:218.75px;font-family:Roboto;-inkscape-font-specification:'Roboto Light';fill:#ffffff"
                        d="m 129.17493,940.43732 33.75244,-97.19849 13.77868,0 -49.34692,135.22339 -2.56348,5.98144 q -9.50622,21.04184 -29.373165,21.04184 -4.592895,0 -9.82666,-1.4953 l -0.106811,-10.57437 6.622314,0.64087 q 9.399412,0 15.167232,-4.69971 5.87464,-4.59289 9.93348,-15.91491 l 5.66101,-15.59448 -43.579105,-114.60877 13.99231,0 35.888675,97.19849 z"/>
            </g>
        </g>
    </g>
</svg>
